<svg xmlns="http://www.w3.org/2000/svg" width="1200" height="680" viewBox="0 0 1200 680"><defs><marker id="arrow" markerWidth="10" markerHeight="10" refX="8" refY="3" orient="auto"><path d="M0,0 L0,6 L9,3 z" fill="#444"/></marker></defs><rect width="100%" height="100%" fill="#f8f8f8"/><rect x="430" y="60" width="330" height="105" rx="8" fill="white" stroke="#333" stroke-width="2"/><text x="595.0" y="84" text-anchor="middle" font-family="Arial" font-size="16" font-weight="bold">Shared Stateless State Objects</text><line x1="430" y1="96" x2="760" y2="96" stroke="#999"/><text x="442" y="118" font-family="Arial" font-size="13">WELCOME</text><text x="442" y="136" font-family="Arial" font-size="13">AUTHENTICATED</text><text x="442" y="154" font-family="Arial" font-size="13">WITHDRAW</text><text x="442" y="172" font-family="Arial" font-size="13">DEPOSIT</text><rect x="80" y="330" width="260" height="150" rx="8" fill="white" stroke="#333" stroke-width="2"/><text x="210.0" y="354" text-anchor="middle" font-family="Arial" font-size="16" font-weight="bold">ATM Session A</text><line x1="80" y1="366" x2="340" y2="366" stroke="#999"/><text x="92" y="388" font-family="Arial" font-size="13">state -> WITHDRAW</text><text x="92" y="406" font-family="Arial" font-size="13">pin, amount, balance</text><text x="92" y="424" font-family="Arial" font-size="13">extrinsic data</text><rect x="470" y="330" width="260" height="150" rx="8" fill="white" stroke="#333" stroke-width="2"/><text x="600.0" y="354" text-anchor="middle" font-family="Arial" font-size="16" font-weight="bold">ATM Session B</text><line x1="470" y1="366" x2="730" y2="366" stroke="#999"/><text x="482" y="388" font-family="Arial" font-size="13">state -> WITHDRAW</text><text x="482" y="406" font-family="Arial" font-size="13">pin, amount, balance</text><text x="482" y="424" font-family="Arial" font-size="13">extrinsic data</text><rect x="860" y="330" width="260" height="150" rx="8" fill="white" stroke="#333" stroke-width="2"/><text x="990.0" y="354" text-anchor="middle" font-family="Arial" font-size="16" font-weight="bold">ATM Session C</text><line x1="860" y1="366" x2="1120" y2="366" stroke="#999"/><text x="872" y="388" font-family="Arial" font-size="13">state -> DEPOSIT</text><text x="872" y="406" font-family="Arial" font-size="13">pin, amount, balance</text><text x="872" y="424" font-family="Arial" font-size="13">extrinsic data</text><line x1="210" y1="330" x2="540" y2="165" stroke="#444" stroke-width="2" marker-end="url(#arrow)"/><text x="375.0" y="241.5" text-anchor="middle" font-family="Arial" font-size="12">references</text><line x1="600" y1="330" x2="600" y2="165" stroke="#444" stroke-width="2" marker-end="url(#arrow)"/><text x="600.0" y="241.5" text-anchor="middle" font-family="Arial" font-size="12">references</text><line x1="990" y1="330" x2="660" y2="165" stroke="#444" stroke-width="2" marker-end="url(#arrow)"/><text x="825.0" y="241.5" text-anchor="middle" font-family="Arial" font-size="12">references</text><rect x="350" y="560" width="500" height="70" rx="8" fill="white" stroke="#333" stroke-width="2"/><text x="600.0" y="584" text-anchor="middle" font-family="Arial" font-size="16" font-weight="bold">Flyweight Distinction</text><line x1="350" y1="596" x2="850" y2="596" stroke="#999"/><text x="362" y="618" font-family="Arial" font-size="13">Intrinsic behavior is shared. Extrinsic session data varies.</text></svg>