<svg xmlns="http://www.w3.org/2000/svg" width="1100" height="680" viewBox="0 0 1100 680"><defs><marker id="arrow" markerWidth="10" markerHeight="10" refX="8" refY="3" orient="auto"><path d="M0,0 L0,6 L9,3 z" fill="#444"/></marker></defs><rect width="100%" height="100%" fill="#f8f8f8"/><rect x="420" y="40" width="260" height="105" rx="8" fill="white" stroke="#333" stroke-width="2"/><text x="550.0" y="64" text-anchor="middle" font-family="Arial" font-size="16" font-weight="bold">ATMSession (Context)</text><line x1="420" y1="76" x2="680" y2="76" stroke="#999"/><text x="432" y="98" font-family="Arial" font-size="13">state: ATMState</text><text x="432" y="116" font-family="Arial" font-size="13">pin, amount, balance</text><text x="432" y="134" font-family="Arial" font-size="13">enter_number(), press_ok()</text><rect x="420" y="210" width="260" height="150" rx="8" fill="white" stroke="#333" stroke-width="2"/><text x="550.0" y="234" text-anchor="middle" font-family="Arial" font-size="16" font-weight="bold">ATMState</text><line x1="420" y1="246" x2="680" y2="246" stroke="#999"/><text x="432" y="268" font-family="Arial" font-size="13">enter_number(session, value)</text><text x="432" y="286" font-family="Arial" font-size="13">press_ok(session)</text><text x="432" y="304" font-family="Arial" font-size="13">press_cancel(session)</text><text x="432" y="322" font-family="Arial" font-size="13">select_withdraw(session)</text><text x="432" y="340" font-family="Arial" font-size="13">select_deposit(session)</text><rect x="70" y="460" width="210" height="95" rx="8" fill="white" stroke="#333" stroke-width="2"/><text x="175.0" y="484" text-anchor="middle" font-family="Arial" font-size="16" font-weight="bold">WelcomeState</text><line x1="70" y1="496" x2="280" y2="496" stroke="#999"/><text x="82" y="518" font-family="Arial" font-size="13">enter_number = PIN</text><text x="82" y="536" font-family="Arial" font-size="13">press_ok = authenticate</text><rect x="320" y="460" width="210" height="95" rx="8" fill="white" stroke="#333" stroke-width="2"/><text x="425.0" y="484" text-anchor="middle" font-family="Arial" font-size="16" font-weight="bold">AuthenticatedState</text><line x1="320" y1="496" x2="530" y2="496" stroke="#999"/><text x="332" y="518" font-family="Arial" font-size="13">select_withdraw()</text><text x="332" y="536" font-family="Arial" font-size="13">select_deposit()</text><rect x="570" y="460" width="210" height="95" rx="8" fill="white" stroke="#333" stroke-width="2"/><text x="675.0" y="484" text-anchor="middle" font-family="Arial" font-size="16" font-weight="bold">WithdrawState</text><line x1="570" y1="496" x2="780" y2="496" stroke="#999"/><text x="582" y="518" font-family="Arial" font-size="13">enter_number = amount</text><text x="582" y="536" font-family="Arial" font-size="13">press_ok = withdraw</text><rect x="820" y="460" width="210" height="95" rx="8" fill="white" stroke="#333" stroke-width="2"/><text x="925.0" y="484" text-anchor="middle" font-family="Arial" font-size="16" font-weight="bold">DepositState</text><line x1="820" y1="496" x2="1030" y2="496" stroke="#999"/><text x="832" y="518" font-family="Arial" font-size="13">enter_number = amount</text><text x="832" y="536" font-family="Arial" font-size="13">press_ok = deposit</text><line x1="550" y1="145" x2="550" y2="210" stroke="#444" stroke-width="2" marker-end="url(#arrow)"/><text x="550.0" y="171.5" text-anchor="middle" font-family="Arial" font-size="12">delegates</text><line x1="550" y1="360" x2="175" y2="460" stroke="#444" stroke-width="2" marker-end="url(#arrow)"/><text x="362.5" y="404.0" text-anchor="middle" font-family="Arial" font-size="12">implements</text><line x1="550" y1="360" x2="425" y2="460" stroke="#444" stroke-width="2" marker-end="url(#arrow)"/><text x="487.5" y="404.0" text-anchor="middle" font-family="Arial" font-size="12">implements</text><line x1="550" y1="360" x2="675" y2="460" stroke="#444" stroke-width="2" marker-end="url(#arrow)"/><text x="612.5" y="404.0" text-anchor="middle" font-family="Arial" font-size="12">implements</text><line x1="550" y1="360" x2="925" y2="460" stroke="#444" stroke-width="2" marker-end="url(#arrow)"/><text x="737.5" y="404.0" text-anchor="middle" font-family="Arial" font-size="12">implements</text></svg>