<svg xmlns="http://www.w3.org/2000/svg" width="1100" height="650" viewBox="0 0 1100 650">
<defs>
<marker id="arrow" markerWidth="10" markerHeight="10" refX="9" refY="3" orient="auto" markerUnits="strokeWidth"><path d="M0,0 L0,6 L9,3 z" fill="#e5e7eb"/></marker>
<marker id="hollow" markerWidth="12" markerHeight="12" refX="10" refY="4" orient="auto" markerUnits="strokeWidth"><path d="M0,0 L10,4 L0,8 z" fill="#0b1020" stroke="#e5e7eb"/></marker>
</defs>
<rect width="100%" height="100%" fill="#0b1020"/>
<text x="550.0" y="42" text-anchor="middle" font-family="Arial, Helvetica, sans-serif" font-size="30" font-weight="700" fill="#ffffff">Adapter Pattern — Canonical UML</text>
<g font-family="Arial, Helvetica, sans-serif">
<rect x="60" y="250" width="220" height="110" rx="8" fill="#111827" stroke="#ffb703" stroke-width="2"/>
<text x="170.0" y="276" text-anchor="middle" font-size="18" font-weight="700" fill="#ffffff">Client</text>
<line x1="60" y1="290" x2="280" y2="290" stroke="#ffb703" stroke-width="1"/>
<text x="74" y="314" font-size="15" fill="#e5e7eb">expects Target</text>
<rect x="380" y="100" width="240" height="120" rx="8" fill="#111827" stroke="#ffb703" stroke-width="2"/>
<text x="500.0" y="126" text-anchor="middle" font-size="18" font-weight="700" fill="#ffffff">«interface» Target</text>
<line x1="380" y1="140" x2="620" y2="140" stroke="#ffb703" stroke-width="1"/>
<text x="394" y="164" font-size="15" fill="#e5e7eb">+ request()</text>
<rect x="380" y="310" width="240" height="125" rx="8" fill="#111827" stroke="#ffb703" stroke-width="2"/>
<text x="500.0" y="336" text-anchor="middle" font-size="18" font-weight="700" fill="#ffffff">Adapter</text>
<line x1="380" y1="350" x2="620" y2="350" stroke="#ffb703" stroke-width="1"/>
<text x="394" y="374" font-size="15" fill="#e5e7eb">- adaptee</text>
<text x="394" y="396" font-size="15" fill="#e5e7eb">+ request()</text>
<rect x="720" y="310" width="260" height="125" rx="8" fill="#111827" stroke="#ffb703" stroke-width="2"/>
<text x="850.0" y="336" text-anchor="middle" font-size="18" font-weight="700" fill="#ffffff">Adaptee</text>
<line x1="720" y1="350" x2="980" y2="350" stroke="#ffb703" stroke-width="1"/>
<text x="734" y="374" font-size="15" fill="#e5e7eb">+ specific_request()</text>
<line x1="280" y1="305" x2="380" y2="360" stroke="#e5e7eb" stroke-width="2" marker-end="url(#arrow)"/><text x="330.0" y="324.5" text-anchor="middle" font-size="14" fill="#d1d5db">request</text>
<line x1="500" y1="310" x2="500" y2="220" stroke="#e5e7eb" stroke-width="2" marker-end="url(#hollow)"/><text x="500.0" y="257.0" text-anchor="middle" font-size="14" fill="#d1d5db">implements</text>
<line x1="620" y1="372" x2="720" y2="372" stroke="#e5e7eb" stroke-width="2" marker-end="url(#arrow)"/><text x="670.0" y="364.0" text-anchor="middle" font-size="14" fill="#d1d5db">translates</text>
</g>
</svg>