<svg xmlns="http://www.w3.org/2000/svg" width="1100" height="650" viewBox="0 0 1100 650">
<defs>
<marker id="arrow" markerWidth="10" markerHeight="10" refX="9" refY="3" orient="auto" markerUnits="strokeWidth"><path d="M0,0 L0,6 L9,3 z" fill="#e5e7eb"/></marker>
<marker id="hollow" markerWidth="12" markerHeight="12" refX="10" refY="4" orient="auto" markerUnits="strokeWidth"><path d="M0,0 L10,4 L0,8 z" fill="#0b1020" stroke="#e5e7eb"/></marker>
</defs>
<rect width="100%" height="100%" fill="#0b1020"/>
<text x="550.0" y="42" text-anchor="middle" font-family="Arial, Helvetica, sans-serif" font-size="30" font-weight="700" fill="#ffffff">Decorator Pattern — Canonical UML</text>
<g font-family="Arial, Helvetica, sans-serif">
<rect x="70" y="250" width="220" height="110" rx="8" fill="#111827" stroke="#ffb703" stroke-width="2"/>
<text x="180.0" y="276" text-anchor="middle" font-size="18" font-weight="700" fill="#ffffff">Client</text>
<line x1="70" y1="290" x2="290" y2="290" stroke="#ffb703" stroke-width="1"/>
<text x="84" y="314" font-size="15" fill="#e5e7eb">uses Component</text>
<rect x="390" y="80" width="250" height="120" rx="8" fill="#111827" stroke="#ffb703" stroke-width="2"/>
<text x="515.0" y="106" text-anchor="middle" font-size="18" font-weight="700" fill="#ffffff">«interface» Component</text>
<line x1="390" y1="120" x2="640" y2="120" stroke="#ffb703" stroke-width="1"/>
<text x="404" y="144" font-size="15" fill="#e5e7eb">+ operation()</text>
<rect x="310" y="300" width="250" height="130" rx="8" fill="#111827" stroke="#ffb703" stroke-width="2"/>
<text x="435.0" y="326" text-anchor="middle" font-size="18" font-weight="700" fill="#ffffff">ConcreteComponent</text>
<line x1="310" y1="340" x2="560" y2="340" stroke="#ffb703" stroke-width="1"/>
<text x="324" y="364" font-size="15" fill="#e5e7eb">+ operation()</text>
<rect x="680" y="300" width="260" height="145" rx="8" fill="#111827" stroke="#ffb703" stroke-width="2"/>
<text x="810.0" y="326" text-anchor="middle" font-size="18" font-weight="700" fill="#ffffff">Decorator</text>
<line x1="680" y1="340" x2="940" y2="340" stroke="#ffb703" stroke-width="1"/>
<text x="694" y="364" font-size="15" fill="#e5e7eb">- component</text>
<text x="694" y="386" font-size="15" fill="#e5e7eb">+ operation()</text>
<rect x="680" y="500" width="260" height="110" rx="8" fill="#111827" stroke="#ffb703" stroke-width="2"/>
<text x="810.0" y="526" text-anchor="middle" font-size="18" font-weight="700" fill="#ffffff">ConcreteDecorator</text>
<line x1="680" y1="540" x2="940" y2="540" stroke="#ffb703" stroke-width="1"/>
<text x="694" y="564" font-size="15" fill="#e5e7eb">+ operation()</text>
<line x1="290" y1="305" x2="390" y2="140" stroke="#e5e7eb" stroke-width="2" marker-end="url(#arrow)"/><text x="340.0" y="214.5" text-anchor="middle" font-size="14" fill="#d1d5db">operation</text>
<line x1="435" y1="300" x2="470" y2="200" stroke="#e5e7eb" stroke-width="2" marker-end="url(#hollow)"/><text x="452.5" y="242.0" text-anchor="middle" font-size="14" fill="#d1d5db">implements</text>
<line x1="810" y1="300" x2="550" y2="200" stroke="#e5e7eb" stroke-width="2" marker-end="url(#hollow)"/><text x="680.0" y="242.0" text-anchor="middle" font-size="14" fill="#d1d5db">implements</text>
<line x1="810" y1="445" x2="810" y2="500" stroke="#e5e7eb" stroke-width="2" marker-end="url(#hollow)"/><text x="810.0" y="464.5" text-anchor="middle" font-size="14" fill="#d1d5db">extends</text>
<line x1="680" y1="365" x2="560" y2="365" stroke="#e5e7eb" stroke-width="2" marker-end="url(#arrow)"/><text x="620.0" y="357.0" text-anchor="middle" font-size="14" fill="#d1d5db">wraps</text>
</g>
</svg>